<svg width="30" height="30" viewBox="0 0 30 30" fill="none" xmlns="http://www.w3.org/2000/svg">
<g clip-path="url(#clip0_53_221)">
<path fill-rule="evenodd" clip-rule="evenodd" d="M15 0C23.2787 0 30 6.72125 30 15C30 23.2787 23.2787 30 15 30C6.72125 30 0 23.2787 0 15C0 6.72125 6.72125 0 15 0ZM25.1588 24.2625C24.8063 23.7612 24.1938 23.445 23.1287 23.2C18.3188 22.0675 18.0075 21.3237 17.6887 20.6262C17.365 19.92 17.4513 19.0888 17.945 18.155C20.1025 14.0837 20.5575 10.625 19.2288 8.4175C18.3862 7.01875 16.885 6.25 15 6.25C13.0988 6.25 11.585 7.0325 10.7387 8.45375C9.40625 10.69 9.8725 14.1338 12.05 18.15C12.5525 19.0775 12.645 19.9075 12.325 20.6175C11.9937 21.35 11.5612 22.105 6.86875 23.2C5.80375 23.445 5.19125 23.7613 4.84 24.26C7.355 27.0188 10.9775 28.75 15 28.75C19.0225 28.75 22.6438 27.0187 25.1588 24.2625ZM25.9713 23.285C27.715 20.98 28.75 18.11 28.75 15C28.75 7.41125 22.5888 1.25 15 1.25C7.41125 1.25 1.25 7.41125 1.25 15C1.25 18.1087 2.28375 20.9787 4.0275 23.2825C4.53875 22.7175 5.33875 22.27 6.58875 21.9812C9.12 21.4037 10.8088 20.9363 11.1863 20.1038C11.3388 19.7638 11.2625 19.3188 10.9513 18.745C8.555 14.3263 8.09875 10.4438 9.66375 7.81375C10.73 6.025 12.6737 5 15 5C17.3062 5 19.2388 6.01 20.3 7.7725C21.8638 10.3713 21.42 14.2662 19.05 18.74C18.7437 19.3188 18.67 19.7663 18.8263 20.1075C19.2075 20.9425 20.8813 21.405 23.41 21.9812C24.66 22.2687 25.46 22.7188 25.9713 23.285Z" fill="#F5F5F5"/>
</g>
<defs>
<clipPath id="clip0_53_221">
<rect width="30" height="30" fill="white"/>
</clipPath>
</defs>
</svg>
