<svg width="30" height="30" viewBox="0 0 30 30" fill="none" xmlns="http://www.w3.org/2000/svg">
<g clip-path="url(#clip0_53_223)">
<path fill-rule="evenodd" clip-rule="evenodd" d="M16.875 26.25C16.53 26.25 16.25 25.97 16.25 25.625C16.25 25.28 16.53 25 16.875 25C17.22 25 17.5 25.28 17.5 25.625C17.5 25.97 17.22 26.25 16.875 26.25ZM16.875 23.75C15.84 23.75 15 24.59 15 25.625C15 26.66 15.84 27.5 16.875 27.5C17.91 27.5 18.75 26.66 18.75 25.625C18.75 24.59 17.91 23.75 16.875 23.75ZM9.375 26.25C9.03 26.25 8.75 25.97 8.75 25.625C8.75 25.28 9.03 25 9.375 25C9.72 25 10 25.28 10 25.625C10 25.97 9.72 26.25 9.375 26.25ZM9.375 23.75C8.34 23.75 7.5 24.59 7.5 25.625C7.5 26.66 8.34 27.5 9.375 27.5C10.41 27.5 11.25 26.66 11.25 25.625C11.25 24.59 10.41 23.75 9.375 23.75ZM30 3.75H26.295L21.7425 22.5H5.09125L0 6.24625H24.4025L25.3125 2.5H30V3.75ZM1.77375 7.49625L6.015 21.25H20.7575L24.1 7.49625H1.77375Z" fill="#F5F5F5"/>
</g>
<defs>
<clipPath id="clip0_53_223">
<rect width="30" height="30" fill="white"/>
</clipPath>
</defs>
</svg>
