<?xml version="1.0" encoding="UTF-8"?>
<svg id="Calque_2" data-name="Calque 2" xmlns="http://www.w3.org/2000/svg" viewBox="0 0 151.22 151.22">
  <defs>
    <style>
      .cls-1 {
        fill: #fff;
        stroke-width: 0px;
      }
    </style>
  </defs>
  <g id="Calque_2-2" data-name="Calque 2">
    <g id="white">
      <path class="cls-1" d="m75.61,0C33.85,0,0,33.85,0,75.61s33.85,75.61,75.61,75.61,75.61-33.85,75.61-75.61S117.36,0,75.61,0Zm0,150.94c-31.26,0-56.6-25.34-56.6-56.6s25.34-56.6,56.6-56.6,56.6,25.34,56.6,56.6-25.34,56.6-56.6,56.6Z"/>
      <path class="cls-1" d="m75.61,75.89c-20.75,0-37.56,16.82-37.56,37.56,0,19.28,14.53,35.16,33.24,37.31-8.38-2-14.61-9.51-14.61-18.5,0-10.52,8.52-19.04,19.04-19.04s19.04,8.52,19.04,19.04c0,8.92-6.14,16.38-14.41,18.45,18.51-2.33,32.83-18.11,32.83-37.26,0-20.75-16.82-37.56-37.56-37.56h-.01Z"/>
    </g>
  </g>
</svg>