<?xml version="1.0" encoding="UTF-8"?>
<svg id="Calque_2" data-name="Calque 2" xmlns="http://www.w3.org/2000/svg" viewBox="0 0 463.19 204.04">
  <defs>
    <style>
      .cls-1, .cls-2 {
        fill: #fff;
      }

      .cls-2 {
        font-family: Poppins-Bold, Poppins;
        font-size: 134.01px;
        font-weight: 700;
      }
    </style>
  </defs>
  <g id="Calque_3" data-name="Calque 3">
    <g>
      <g id="white">
        <path class="cls-1" d="m75.61,0C33.85,0,0,33.85,0,75.61s33.85,75.61,75.61,75.61,75.61-33.85,75.61-75.61S117.36,0,75.61,0Zm0,150.94c-31.26,0-56.6-25.34-56.6-56.6s25.34-56.6,56.6-56.6,56.6,25.34,56.6,56.6-25.34,56.6-56.6,56.6Z"/>
        <path class="cls-1" d="m75.61,75.89c-20.75,0-37.56,16.82-37.56,37.56,0,19.28,14.53,35.16,33.24,37.31-8.38-2-14.61-9.51-14.61-18.5,0-10.52,8.52-19.04,19.04-19.04s19.04,8.52,19.04,19.04c0,8.92-6.14,16.38-14.41,18.45,18.51-2.33,32.83-18.11,32.83-37.26,0-20.75-16.82-37.56-37.56-37.56Z"/>
      </g>
      <text class="cls-2" transform="translate(177.62 122.84)"><tspan x="0" y="0">MMI</tspan></text>
    </g>
  </g>
</svg>