<?xml version="1.0" encoding="UTF-8"?>
<svg id="Calque_1" data-name="Calque 1" xmlns="http://www.w3.org/2000/svg" version="1.1" viewBox="0 0 128 128">
  <defs>
    <style>
      .cls-1 {
        fill: #fff;
        stroke-width: 0px;
      }
    </style>
  </defs>
  <path class="cls-1" d="M10.7,0C4.8,0,0,4.9,0,10.9v94.8l17.3-61.6h17.5l-2.3,8.1h.3c1-1.2,2.3-2.1,4-3.3,1.6-1.2,3.3-2.2,5.1-3.1,1.8-1,3.8-1.6,5.9-2.3,2.1-.7,4.3-.8,6.4-.8,4.6,0,8.4.8,11.7,2.3,3.3,1.5,5.8,3.8,7.8,6.6,1.6,2.5,2.6,5.5,3.1,8.9h0c0,.3.1.7.1,1,.3,3.8-.2,8.1-1.5,12.7-1.2,4.3-3,8.4-5.4,12.4-2.4,3.8-5.2,7.3-8.4,10.4-3.2,3-6.9,5.4-10.9,7.3-4,1.8-8.1,2.6-12.5,2.6-3.6,0-7.2-.6-10.6-1.8-3.1-1.2-5.3-3.3-6.6-6.3h-.3l-8.3,29.2h104.5c2.9,0,5.7-1.1,7.7-3.2,2-2,3.2-4.8,3.2-7.7V25.1c-.5-.2-1-.3-1.3-.5-1-.2-2-.3-3-.3-3,0-5.5.7-7.4,2-1.8,1.3-3.5,4-4.6,8.1l-2.8,9.7h10.7l2.6,8.4-6.9,6.8h-10.7l-13,46.2h-18.8l13.1-46.2h-7.3l-.2.2h-.2v-.2l4.3-15.2h7.6l3-10.9c1-3.3,2.1-6.6,3.6-9.6,1.3-3,3.3-5.6,5.6-7.9,2.3-2.3,5.3-4.1,8.8-5.4,3.5-1.3,7.9-2,13.1-2s2.5,0,3.8.2C126.5,3.6,122.2.2,117.3,0H10.7ZM45.7,59.3c-4.8,0-8.9,1.5-12.4,4.3-3.5,2.8-5.8,6.6-7.1,11.2-1.3,4.6-1.2,8.4.8,11.2,1.6,3,5,4.3,9.9,4.3s8.9-1.5,12.4-4.3c3.5-2.8,5.9-6.6,7.3-11.2,1.3-4.6,1-8.4-.8-11.2-1.8-2.8-5.3-4.3-10.1-4.3h0Z"/>
</svg>