<?xml version="1.0" encoding="UTF-8"?>
<svg id="Calque_2" data-name="Calque 2" xmlns="http://www.w3.org/2000/svg" viewBox="0 0 121.19 66.69">
  <defs>
    <style>
      .cls-1 {
        fill: #fff;
        stroke: #fff;
        stroke-miterlimit: 10;
        stroke-width: .25px;
      }
    </style>
  </defs>
  <g id="Calque_2-2" data-name="Calque 2">
    <g id="trajectoire">
      <path class="cls-1" d="M40.47,3.52l3.93,10.77c4.28-1.5,8.84-2.42,13.57-2.67V.14c-6.11.25-11.99,1.42-17.5,3.38ZM63.23.13v11.49c12.53.66,23.81,6.03,32.1,14.37l8.11-8.11C93.06,7.46,78.93.8,63.23.13ZM119.22,45.65l-10.84,3.95c.8,3.52,1.22,7.18,1.22,10.95,0,2.01-.13,3.99-.36,5.95h11.53c.2-1.96.3-3.95.3-5.95,0-5.14-.64-10.14-1.85-14.9ZM39.53,16.3l-3.94-10.83C14.68,14.99.12,36.07.12,60.55c0,2,.1,3.99.3,5.95h11.54c-.24-1.96-.37-3.94-.37-5.95,0-19.52,11.41-36.37,27.93-44.25ZM106.98,21.76l-8.15,8.15c3.48,4.33,6.24,9.27,8.08,14.63l10.78-3.93c-2.42-6.95-6.07-13.32-10.71-18.85Z"/>
      <path class="cls-1" d="M60.6,20.29c-15.19,0-28.67,7.32-37.11,18.62l10.28,5.94c6.33-7.81,15.99-12.8,26.83-12.8,3.51,0,6.91.53,10.1,1.51l4.03-11.06c-4.45-1.44-9.2-2.21-14.13-2.21ZM79.6,24.36l-4.04,11.1c11.54,5.56,19.53,17.37,19.55,31.04h11.76c-.02-18.75-11.22-34.9-27.27-42.14ZM20.6,43.26c-3.98,6.82-6.27,14.77-6.28,23.24v.06h11.76v-.06c.01-6.33,1.73-12.26,4.71-17.35l-10.19-5.89Z"/>
      <path class="cls-1" d="M85.97,53.36l-10.91,6.3c1.19,2.04,1.94,4.36,2.16,6.84h12.62c-.23-4.77-1.61-9.24-3.87-13.14ZM31.35,66.5h12.63c.67-7.58,6.4-13.69,13.79-14.96v-12.7c-14.36,1.38-25.69,13.12-26.42,27.66ZM63.46,38.85v12.7c2.98.51,5.68,1.81,7.89,3.68l11.3-6.52c-4.78-5.46-11.56-9.13-19.19-9.86Z"/>
      <path class="cls-1" d="M69.62,66.5h-18c.49-2.25,1.81-4.18,3.61-5.46.63-.47,1.32-.85,2.05-1.13,0,0,0-.01.02-.01.87-.33,1.81-.54,2.78-.59.18-.01.36-.02.54-.02.29,0,.57.01.85.04h0c.07.01.12.01.18.02.42.05.83.12,1.22.22.35.09.7.2,1.03.32t.02.01c1.13.43,2.15,1.08,3.02,1.91.62.58,1.16,1.25,1.6,1.99.03.03.05.07.07.11.46.79.8,1.66,1,2.59Z"/>
    </g>
  </g>
</svg>