<?xml version="1.0" encoding="UTF-8"?>
<svg id="Calque_1" data-name="Calque 1" xmlns="http://www.w3.org/2000/svg" version="1.1" viewBox="0 0 24 24">
  <defs>
    <style>
      .cls-1 {
        fill: #fff;
        stroke-width: 0px;
      }
    </style>
  </defs>
  <path class="cls-1" d="M23,17H1v7h22v-7ZM3,22l.9-3h1.3l-.9,3h-1.3ZM5.1,22l.9-3h1.3l-.9,3h-1.3ZM7.1,22l.9-3h1.3l-.9,3s-1.3,0-1.3,0ZM9.2,22l.9-3h1.3l-.9,3h-1.3ZM12.5,22h-1.3l.9-3h1.3s-.9,3-.9,3ZM20,21.5c-.6,0-1-.4-1-1s.4-1,1-1,1,.4,1,1-.4,1-1,1ZM21,2v11H3V2h18ZM23,0H1v15h22V0ZM10,7.5l-2.6-2.5-.8.8,1.8,1.7-1.8,1.7.8.8,2.6-2.5ZM17,9h-5v1h5v-1Z"/>
</svg>