<?xml version="1.0" encoding="UTF-8"?>
<svg id="Calque_1" data-name="Calque 1" xmlns="http://www.w3.org/2000/svg" version="1.1" viewBox="0 0 24 24">
  <defs>
    <style>
      .cls-1 {
        fill: #fff;
        stroke-width: 0px;
      }
    </style>
  </defs>
  <path class="cls-1" d="M7,16H0v-3h7v3ZM16,13h-8v3h8v-3ZM24,13h-7v3h7v-3ZM7,21H0v3h7v-3ZM16,21h-8v3h8v-3ZM24,21h-7v3h7v-3ZM12,17H4v3h8v-3ZM20,17h-7v3h7v-3ZM24,17h-3v3h3v-3ZM3,17H0v3h3v-3ZM19.8,5.6c0,1.3-.6,2.3-1.4,2.7-2.3-.8,1-6.1-5.2-7.9,1.2,1.8,1,4.8-1,5.8C10,5,12.6.8,6.2,0c3,3.2-1.7,5.2,0,8-1-.2-1.8-1.6-1.3-3.2-2.3,1.6-2,4.8-.6,6.1h4.5c-.9-1.2,1.6-2.3,0-3.7,3.5.3,2.1,2.2,3.3,2.7,1.1-.4,1.6-1.6.9-2.7,2.4.5,2.6,2.7,1.9,3.6h4.6c1.6-1.4,1.5-3.8.2-5.4Z"/>
</svg>