<?xml version="1.0" encoding="UTF-8"?>
<svg id="Calque_1" data-name="Calque 1" xmlns="http://www.w3.org/2000/svg" version="1.1" viewBox="0 0 24 24">
  <defs>
    <style>
      .cls-1 {
        fill: #fff;
        fill-rule: evenodd;
        stroke-width: 0px;
      }
    </style>
  </defs>
  <path class="cls-1" d="M0,1h24v22H0V1ZM22,21V6H2v15h20ZM16.5,10.5l-4.1,3.6c-.7-.1-1.4,0-1.9.6-.7.8-.7,2.1.2,2.8.8.7,2.1.7,2.8-.2.5-.6.6-1.3.4-2l3.1-4.5s-.5-.4-.5-.4ZM7,17h-3c0-4.4,3.6-8,8-8s2.3.2,3.3.7l-2.8,2.3h-.5c-2.8,0-5,2.2-5,5ZM20,17h-3c0-.9-.2-1.7-.6-2.4l1.7-2.8c1.2,1.4,1.9,3.2,1.9,5.1Z"/>
</svg>