<?xml version="1.0" encoding="UTF-8"?>
<svg id="Calque_1" data-name="Calque 1" xmlns="http://www.w3.org/2000/svg" version="1.1" viewBox="0 0 24 24">
  <defs>
    <style>
      .cls-1 {
        fill: #fff;
        stroke-width: 0px;
      }
    </style>
  </defs>
  <path class="cls-1" d="M12,4c1.7,0,3.6.4,5,1.1v9.4c0,1.6-.4,1.9-5,4.8V4ZM21,3v11.5c0,4.6-3.2,5.8-9,9.5-5.8-3.7-9-4.9-9-9.5V3C4.9,1.3,8.3,0,12,0s7.1,1.3,9,3ZM19,4c-1.7-1.2-4.4-2-7-2s-5.3.8-7,2v10.5c0,3,1.7,3.8,7,7.1,5.3-3.3,7-4.1,7-7.1V4Z"/>
</svg>