<?xml version="1.0" encoding="UTF-8"?>
<svg id="Calque_1" data-name="Calque 1" xmlns="http://www.w3.org/2000/svg" version="1.1" viewBox="0 0 24 24">
  <defs>
    <style>
      .cls-1 {
        fill: #fff;
        fill-rule: evenodd;
        stroke-width: 0px;
      }
    </style>
  </defs>
  <path class="cls-1" d="M12,0C18.6,0,24,5.4,24,12s-5.4,12-12,12S0,18.6,0,12,5.4,0,12,0M14.6,16h-5.1c.5,2.5,1.4,4.1,2.6,5.7,1.2-1.7,2-3.4,2.6-5.7M7.4,16H2.8c1.2,2.8,3.7,5,6.8,5.7-1-1.7-1.8-3.7-2.2-5.7M21.2,16h-4.6c-.4,2-1.1,3.9-2.2,5.7,3-.8,5.5-2.9,6.7-5.7M7.2,10H2.2c-.3,1.3-.3,2.7,0,4h4.9c-.1-1.3-.1-2.7,0-4M14.8,10h-5.6c-.2,1.3-.2,2.7,0,4h5.8c.1-1.3.1-2.7,0-4M21.8,10h-5c.1,1.3.2,2.7,0,4h4.9c.3-1.3.3-2.6,0-4M9.6,2.3c-3.1.7-5.6,2.9-6.8,5.7h4.7c.4-2,1.2-4,2.2-5.7M12,2.2c-1.1,1.8-1.9,3.5-2.5,5.8h4.9c-.5-2.2-1.3-3.9-2.5-5.8M14.4,2.3c1,1.8,1.7,3.8,2.1,5.7h4.7c-1.2-2.8-3.8-5-6.8-5.7"/>
</svg>