<?xml version="1.0" encoding="UTF-8"?>
<svg id="Calque_1" data-name="Calque 1" xmlns="http://www.w3.org/2000/svg" version="1.1" viewBox="0 0 24 24">
  <defs>
    <style>
      .cls-1 {
        fill: #fff;
        stroke-width: 0px;
      }
    </style>
  </defs>
  <path class="cls-1" d="M12,5c-4.1,0-7.7,3.1-9.9,6.5,0,.2-.1.3-.1.5s0,.4.1.5c2.1,3.4,5.8,6.5,9.9,6.5s7.8-3.1,9.9-6.5c0-.2.1-.3.1-.5s0-.4-.1-.5c-2.1-3.4-5.7-6.5-9.9-6.5ZM20.4,12c-1.8,2.9-4.9,5.5-8.4,5.5s-6.5-2.6-8.4-5.5c1.9-2.9,4.9-5.5,8.4-5.5s6.6,2.6,8.4,5.5ZM12,8c2.2,0,4,1.8,4,4s-1.8,4-4,4-4-1.8-4-4,1.8-4,4-4ZM12,9.5c-1.4,0-2.5,1.1-2.5,2.5s1.1,2.5,2.5,2.5,2.5-1.1,2.5-2.5-1.1-2.5-2.5-2.5Z"/>
</svg>