<?xml version="1.0" encoding="UTF-8"?>
<svg id="Calque_2" data-name="Calque 2" xmlns="http://www.w3.org/2000/svg" viewBox="0 0 24 24">
  <defs>
    <style>
      .cls-1 {
        fill: #fff;
        stroke-width: 0px;
      }
    </style>
  </defs>
  <g id="Calque_1-2" data-name="Calque 1">
    <path class="cls-1" d="m10,2h-2V0h2v2ZM2,14H0v2h2v-2Zm0-3H0v2h2v-2Zm0-3H0v2h2v-2Zm0-5c0-.55.45-1,1-1h4V0H3C1.34,0,0,1.34,0,3v4h2V3ZM13,0h-2v2h2V0Zm3,0h-2v2h2V0Zm-3.33,11.61c0-.33-.21-.4-.54-.4h-.47v.79h.47c.33,0,.54-.07.54-.4ZM4,4h16v16H4V4Zm10.04,8.6c0,.95.55,1.4,1.49,1.4s1.49-.46,1.49-1.4v-2.13h-.91v2.13c0,.48-.16.62-.58.62s-.58-.21-.58-.62v-2.13h-.9s0,2.13,0,2.13Zm-3.28,1.33h.91v-1.17h.66c.79,0,1.23-.47,1.23-1.14s-.45-1.14-1.23-1.14h-1.57s0,3.46,0,3.46Zm-3.74-1.72c0,1.01.65,1.79,1.7,1.79.82,0,1.45-.48,1.54-1.52h-.88c-.15,1.1-1.45.96-1.45-.27,0-.56.23-1.03.8-1.03.31,0,.58.19.63.57h.88c-.09-.92-.73-1.36-1.51-1.36-1.05,0-1.7.79-1.7,1.82Zm14.98.79h2v-2h-2v2ZM2,21v-4H0v4c0,1.66,1.34,3,3,3h4v-2H3c-.55,0-1-.45-1-1Zm20,0c0,.55-.45,1-1,1h-4v2h4c1.66,0,3-1.34,3-3v-4h-2v4Zm0-5h2v-2h-2v2Zm0-6h2v-2h-2v2Zm-1-10h-4v2h4c.55,0,1,.45,1,1v4h2V3c0-1.66-1.34-3-3-3Zm-13,24h2v-2h-2v2Zm6,0h2v-2h-2v2Zm-3,0h2v-2h-2v2Z"/>
  </g>
</svg>