<?xml version="1.0" encoding="UTF-8"?>
<svg id="Calque_2" data-name="Calque 2" xmlns="http://www.w3.org/2000/svg" viewBox="0 0 408.76 408.85">
  <defs>
    <style>
      .cls-1 {
        fill: #fff;
        stroke-width: 0px;
      }
    </style>
  </defs>
  <g id="Calque_1-2" data-name="Calque 1">
    <g>
      <path class="cls-1" d="M309.01,0c3.78,2.44,4.61,6.08,4.48,10.3-.17,5.44-.04,10.89-.04,16.91,1.8,0,3.35-.02,4.89,0,10.77.14,21.62-.5,32.29.62,17.74,1.86,30.74,17.05,30.96,34.89.12,9.31.02,18.63.02,27.95,0,1.43,0,2.86,0,4.72,4.12,0,7.81,0,11.49,0,2.26,0,4.52-.03,6.79,0,5.74.1,8.95,2.64,8.86,6.95-.08,4.18-3.18,6.62-8.7,6.7-4.66.07-9.31.02-13.97.02-1.31,0-2.63,0-4.2,0v27.3c6.34,0,12.57-.18,18.77.1,2.1.09,4.82.75,6.04,2.18,1.31,1.53,1.85,4.39,1.54,6.48-.5,3.3-3.43,4.65-6.54,4.79-4.52.2-9.05.08-13.57.1-1.98,0-3.96,0-6.22,0v27.23c5.86,0,11.68-.02,17.49.01,1.46,0,3-.1,4.36.31,3.28,1,5.08,3.37,4.97,6.85-.11,3.53-2.93,6.24-6.96,6.36-6.5.18-13.02.05-19.83.05v27.23c4.95,0,9.95,0,14.96,0,1.6,0,3.2-.08,4.79.04,4.33.33,7.27,3.32,7.08,7.11-.18,3.7-3.04,6.33-7.28,6.43-5.19.12-10.38.04-15.57.04-1.29,0-2.58,0-4.08,0v27.25c5.25,0,10.51-.03,15.77.02,1.85.02,3.74.02,5.55.35,3.66.66,5.53,3.09,5.57,6.72.05,3.45-2.62,6.25-6.36,6.4-5.98.23-11.97.11-17.96.16-.78,0-1.55.12-2.54.2v27.08c5.52,0,10.81-.02,16.1.01,1.72.01,3.47.03,5.16.33,3.42.6,5.86,3.46,5.6,6.67-.28,3.39-2,5.97-5.56,6.28-4.49.39-9.03.3-13.54.38-2.5.04-5.01,0-8,0,0,4.96.05,9.58-.01,14.2-.11,7.71.32,15.49-.57,23.11-2.08,17.62-17.18,30.66-35.04,30.84-10.63.11-21.25.02-32.54.02,0,5.24.03,10.23-.01,15.22-.02,2.12-.03,4.27-.35,6.36-.54,3.53-2.93,5.28-6.33,5.54-3.22.24-6.32-2.18-6.6-5.63-.41-5.02-.29-10.09-.38-15.14-.03-1.96,0-3.93,0-6.11h-27.29c0,4.84,0,9.7,0,14.56,0,2,.06,4-.12,5.98-.35,3.73-3,6.39-6.45,6.34-3.64-.06-6.2-1.94-6.68-5.6-.45-3.4-.33-6.89-.38-10.34-.05-3.57-.01-7.13-.01-10.93h-27.22c0,6.28.03,12.36,0,18.45-.03,5.33-2.69,8.56-6.88,8.46-4.04-.09-6.65-3.24-6.7-8.32-.06-6.1-.01-12.2-.01-18.57h-27.2c0,6.29-.01,12.5,0,18.72,0,3.13-.87,5.81-3.8,7.37-4.46,2.38-9.58-.79-9.74-6.22-.19-6.5-.04-13.01-.04-19.83h-27.27c0,3.65,0,7.32,0,11,0,2.79.11,5.6-.05,8.38-.26,4.52-2.97,7.42-6.75,7.46-3.98.05-6.72-2.92-6.8-7.72-.1-6.35-.03-12.7-.03-19.24h-27.3c0,4.55,0,9.01,0,13.47,0,2,.08,4-.05,5.99-.3,4.61-2.86,7.42-6.68,7.49-3.96.07-6.72-2.84-6.89-7.67-.17-4.92-.05-9.85-.06-14.77,0-1.43,0-2.86,0-4.7-10.65,0-20.87.21-31.07-.1-4.45-.13-9.04-.77-13.26-2.14-13.05-4.23-22.78-17.15-23.7-30.72-.28-4.06,2.15-7.31,5.81-7.76,3.92-.49,6.82,1.76,7.59,5.9,2.75,14.76,10.51,21.2,25.55,21.2,92.35,0,184.69-.17,277.04.19,13.96.05,24.94-10.84,24.89-24.95-.37-92.63-.36-185.26,0-277.89.05-13.98-10.97-24.83-24.64-24.78-92.74.34-185.49.34-278.23,0-13.76-.05-24.74,10.85-24.68,24.74.37,83.58.18,167.16.18,250.74,0,1.73.11,3.49-.17,5.18-.54,3.24-2.51,5.26-5.85,5.58-3.47.33-6.11-1.16-6.97-4.57-.67-2.65-.64-5.48-.97-8.8-5.48,0-11.02-.12-16.55.04-4.22.13-7.85-.71-10.29-4.48v-4.79c2.44-3.77,6.07-4.61,10.29-4.48,5.52.17,11.06.04,16.59.04v-27.29c-6.15,0-11.99-.13-17.82.04-4.14.13-7.27-1.15-9.06-5.05v-3.99c2.26-3.68,5.65-4.8,9.8-4.68,5.67.16,11.35.04,17.13.04v-27.25c-5.96,0-11.66-.18-17.35.06-4.27.18-7.55-1.01-9.59-4.91v-3.99c2.19-3.72,5.45-4.99,9.7-4.82,5.78.23,11.58.06,17.28.06v-27.2c-5.9,0-11.6-.17-17.28.06-4.25.17-7.51-1.11-9.7-4.82v-3.99c2.04-3.9,5.32-5.09,9.59-4.91,5.79.24,11.59.06,17.29.06v-27.25c-5.91,0-11.5-.12-17.08.04-4.16.12-7.55-1-9.8-4.68v-3.99c1.79-3.9,4.92-5.17,9.06-5.05,5.94.18,11.88.04,17.85.04v-27.29c-5.73,0-11.18-.13-16.62.04-4.22.13-7.85-.71-10.29-4.48v-4.79c2.44-3.77,6.07-4.61,10.28-4.48,5.52.17,11.05.04,16.77.04.07-1.32.15-2.09.15-2.87,0-9.84.06-19.68,0-29.52-.13-18.94,15.55-34.27,31.05-35.26,10.72-.68,21.51-.39,32.27-.53,1.54-.02,3.08,0,4.86,0,0-6.04.13-11.49-.04-16.92-.13-4.22.72-7.84,4.48-10.28h4.79c3.77,2.44,4.61,6.07,4.48,10.29-.17,5.53-.04,11.06-.04,16.59h27.29c0-6.16.14-12-.05-17.83-.13-4.15,1.19-7.25,5.05-9.06h3.99c3.68,2.25,4.82,5.63,4.7,9.79-.16,5.67-.04,11.36-.04,17.15h27.22c0-5.96.18-11.67-.06-17.35-.18-4.27,1.01-7.55,4.91-9.59h3.99c3.72,2.18,5,5.44,4.82,9.7-.24,5.78-.06,11.58-.06,17.29h27.2c0-5.9.17-11.6-.06-17.28-.17-4.25,1.11-7.52,4.82-9.7h3.99c3.64,1.99,5.09,4.99,4.91,9.19-.25,5.92-.06,11.86-.06,17.69h27.25c0-5.91.12-11.5-.04-17.08-.12-4.15.98-7.55,4.68-9.8h3.99c3.86,1.81,5.18,4.9,5.05,9.06-.18,5.94-.05,11.89-.05,17.86h27.29c0-5.73.13-11.19-.04-16.63-.13-4.22.71-7.85,4.48-10.29h4.79Z"/>
      <path class="cls-1" d="M204.57,95.39c28.61,0,57.22-.02,85.84.01,10.94.01,19.07,5.53,21.96,15.05.79,2.62,1.04,5.49,1.05,8.25.07,34.47-.17,68.95.15,103.42.13,14.24-11.28,24.2-23.23,23.23-5.42-.44-10.91-.21-16.36.03-1.24.05-2.94,1.09-3.55,2.17-4.08,7.21-10.02,11.33-18.38,11.29-8.36-.04-14.26-4.17-18.29-11.43-.62-1.11-2.62-2.03-4-2.04-14.5-.15-29.01-.07-43.52-.1-13.78-.03-22.59-8.9-22.63-22.74-.02-5.32-.08-10.65.03-15.97.04-2.18-.43-3.47-2.64-4.62-8.93-4.63-12.94-14.27-10.17-23.58,2.85-9.59,11.43-15.4,21.59-14.61,9.19.72,16.83,8.21,18.18,17.85,1.12,8.04-3.03,16.23-10.64,20.23-2.06,1.09-2.86,2.2-2.79,4.51.16,5.59.01,11.18.06,16.77.05,5.48,2.93,8.5,8.29,8.52,14.9.05,29.81.08,44.71-.09,1.3-.01,2.75-1.34,3.85-2.35,3.07-2.84,6.05-5.78,8.93-8.8.95-1,2.11-2.4,2.12-3.63.15-12.78,0-25.56.17-38.33.03-2.48-1.41-3.04-3.04-3.96-8.42-4.74-12.3-13.99-9.79-23.14,2.44-8.89,10.57-15,19.84-14.92,9.41.08,17.39,6.45,19.67,15.69,2.17,8.81-1.97,18.07-10.4,22.53-2.09,1.1-2.78,2.28-2.76,4.55.1,12.38.1,24.76,0,37.14-.02,2.15.9,3.07,2.55,4.34,3.17,2.47,5.75,5.69,8.7,8.46,1.1,1.04,2.53,2.35,3.86,2.41,5.84.26,11.71.17,17.56.1,5.17-.06,8.24-2.96,8.25-8.17.06-35.41.07-70.81,0-106.22-.01-5.42-3.2-8.16-9.09-8.17-19.56-.04-39.12-.01-58.69-.01-37.39,0-74.79,0-112.18,0-8.36,0-10.72,2.33-10.73,10.58,0,15.84-.01,31.68,0,47.52,0,6.99,2.02,9.28,8.88,10.22,9.86,1.35,18.27,10.62,18.32,20.19.05,9.51-8.32,18.83-18.22,20.3-7.04,1.05-8.98,3.2-8.99,10.12-.02,20.63-.02,41.26,0,61.89,0,7.29,2.59,9.9,9.77,9.93,3.06.02,6.12.07,9.18-.02,4.8-.15,7.56-2.63,8.39-7.4,2.32-13.29,10.1-19.84,23.59-19.86,7.19-.01,14.37-.04,21.56,0,12.67.07,20.94,7.29,22.84,19.89.72,4.75,3.46,7.34,8.36,7.36,19.43.07,38.86-.03,58.29.11,2.62.02,3.32-1.44,4.34-3.22,4.7-8.24,13.88-12.1,22.83-9.73,8.9,2.36,15.13,10.46,15.14,19.7.01,9.13-5.92,17.03-14.73,19.6-9.17,2.68-18.67-1.21-23.39-9.92-1.22-2.25-2.56-2.88-4.95-2.87-18.36.09-36.73.05-55.09.04-14.4,0-21.76-6.16-24.38-20.35-.77-4.17-3.63-6.85-8.01-6.92-8.25-.14-16.5-.14-24.75,0-4.62.07-7.26,2.6-8.11,7.21-2.54,13.76-10.16,20.06-24.28,20.07-3.19,0-6.4.13-9.58-.08-11.89-.78-20.45-9.23-20.6-21.2-.28-22.22-.28-44.46.01-66.68.15-11.48,7.94-19.39,19.54-21.05,4.28-.61,7.54-3.65,7.46-6.98-.07-3.21-3.2-6.1-7.29-6.72-12.59-1.93-19.76-10.15-19.81-22.9-.06-16.5-.06-33.01,0-49.51.05-14.01,8.96-22.95,22.95-22.98,28.74-.06,57.49-.02,86.23-.02ZM252.16,231.75c-3.44-.04-6.66,3.04-6.83,6.51-.17,3.63,3,6.92,6.71,6.95,3.64.03,6.59-2.8,6.73-6.44.14-3.77-2.89-6.98-6.61-7.03ZM258.79,156.91c.08-3.8-2.92-6.86-6.72-6.84-3.56.01-6.62,2.98-6.73,6.52-.11,3.56,3.23,6.96,6.8,6.93,3.52-.03,6.58-3.07,6.65-6.61ZM170.34,177.29c-3.59,0-6.58,2.93-6.68,6.52-.1,3.72,3.02,6.97,6.69,6.97,3.45,0,6.65-3.11,6.77-6.58.13-3.63-3.1-6.91-6.78-6.91ZM299.62,306.65c-.01-3.68-2.8-6.54-6.46-6.62-3.82-.09-6.85,2.87-6.84,6.67.01,3.79,3.07,6.73,6.89,6.62,3.65-.11,6.43-2.99,6.42-6.67Z"/>
      <path class="cls-1" d="M334.05,81.62c-3.81,0-6.8-3.08-6.7-6.88.1-3.59,3.13-6.53,6.73-6.52,3.67.02,6.9,3.34,6.77,6.95-.13,3.58-3.17,6.46-6.79,6.45Z"/>
      <path class="cls-1" d="M340.85,334.16c-.14,3.69-3.52,6.71-7.2,6.46-3.63-.25-6.4-3.29-6.29-6.91.11-3.83,3.22-6.62,7.12-6.4,3.6.2,6.51,3.34,6.38,6.85Z"/>
      <path class="cls-1" d="M74.74,81.6c-3.84-.2-6.51-3.32-6.21-7.24.28-3.63,3.39-6.33,7.01-6.09,3.63.25,6.44,3.31,6.33,6.89-.12,3.78-3.28,6.64-7.12,6.44Z"/>
      <path class="cls-1" d="M74.96,340.64c-3.8-.12-6.64-3.25-6.45-7.1.18-3.69,3.09-6.36,6.83-6.26,3.79.1,6.75,3.29,6.52,7.04-.22,3.6-3.31,6.43-6.89,6.32Z"/>
    </g>
  </g>
</svg>