<?xml version="1.0" encoding="UTF-8"?>
<svg id="Calque_1" data-name="Calque 1" xmlns="http://www.w3.org/2000/svg" version="1.1" viewBox="0 0 24 24">
  <defs>
    <style>
      .cls-1 {
        fill: #fff;
        stroke-width: 0px;
      }
    </style>
  </defs>
  <path class="cls-1" d="M17,10.6v-2.3c-1.2-.4-1.9-.5-2.3-1.4-.4-.9,0-1.5.6-2.6l-1.6-1.6c-1.1.5-1.7,1-2.6.6-.9-.4-1-1.1-1.4-2.3h-2.3c-.4,1.2-.5,1.9-1.4,2.3h0c-.9.4-1.5,0-2.6-.6l-1.6,1.6c.5,1.1,1,1.7.6,2.6C1.9,7.8,1.2,7.9,0,8.4v2.3c1.2.4,1.9.5,2.3,1.4.4.9,0,1.5-.6,2.6l1.6,1.6c1.1-.5,1.7-1,2.6-.6h0c.9.4,1,1.1,1.4,2.3h2.3c.4-1.2.5-1.9,1.4-2.3h0c.9-.4,1.5,0,2.6.6l1.6-1.6c-.5-1.1-1-1.7-.6-2.6.4-.9,1.1-1,2.3-1.4ZM8.5,12.3c-1.6,0-2.8-1.3-2.8-2.8s1.3-2.8,2.8-2.8,2.8,1.3,2.8,2.8-1.3,2.8-2.8,2.8ZM24,16.5v-1.1c-.5-.2-.9-.3-1.1-.7-.2-.4,0-.7.3-1.2l-.8-.8c-.5.2-.8.5-1.2.3s-.5-.5-.7-1.1h-1.1c-.2.5-.2.9-.7,1.1s-.7,0-1.2-.3l-.8.8c.2.5.5.8.3,1.2s-.5.5-1.1.7v1.1c.5.2.9.2,1.1.7.2.4,0,.7-.3,1.2l.8.8c.5-.2.8-.5,1.2-.3.4.2.5.5.7,1.1h1.1c.2-.5.2-.9.7-1.1h0c.4-.2.7,0,1.2.3l.8-.8c-.2-.5-.5-.8-.3-1.2s.5-.5,1.1-.7ZM20,17.3c-.7,0-1.3-.6-1.3-1.3s.6-1.3,1.3-1.3,1.3.6,1.3,1.3-.6,1.3-1.3,1.3ZM16,20.4v-.8c-.4-.1-.7-.2-.8-.5s0-.5.2-.9l-.6-.6c-.4.2-.6.3-.9.2s-.4-.4-.5-.8h-.8c-.1.4-.2.7-.5.8-.3.1-.5,0-.9-.2l-.6.6c.2.4.3.6.2.9s-.4.4-.8.5v.8c.4.1.7.2.8.5.1.3,0,.5-.2.9l.6.6c.4-.2.6-.3.9-.2s.4.4.5.8h.8c.1-.4.2-.7.5-.8h0c.3-.1.5,0,.9.2l.6-.6c-.2-.4-.3-.6-.2-.9s.4-.4.8-.5ZM13,21c-.6,0-1-.4-1-1s.4-1,1-1,1,.4,1,1-.4,1-1,1Z"/>
</svg>