<?xml version="1.0" encoding="UTF-8"?>
<svg id="icon" xmlns="http://www.w3.org/2000/svg" version="1.1" viewBox="0 0 800 800">
  <defs>
    <style>
      .cls-1 {
        fill: #fff;
        stroke-width: 0px;
      }
    </style>
  </defs>
  <path class="cls-1" d="M500,357v-57c0-55.2-44.8-100-100-100s-100,44.8-100,100v57c-15.4,8.9-24.9,25.3-25,43v125c0,27.6,22.4,50,50,50h150c27.6,0,50-22.4,50-50v-125c0-17.8-9.6-34.2-25-43ZM400,250c27.6,0,50,22.4,50,50v50h-100v-50c0-27.6,22.4-50,50-50ZM475,525h-150v-125h150v125Z"/>
  <path class="cls-1" d="M760.4,435.4c19.5-19.5,19.5-51.2,0-70.7h0s-144.7-144.7-144.7-144.7l72.5-71.6c26.8,6.6,54-9.7,60.6-36.5,6.6-26.8-9.7-54-36.5-60.6-26.8-6.6-54,9.7-60.6,36.5-2.1,8.5-1.9,17.5.5,25.9l-71.8,70.9L435.4,39.6c-19.5-19.5-51.2-19.5-70.7,0h0s-144.7,144.7-144.7,144.7l-71.6-72.5c6.6-26.8-9.7-54-36.6-60.6-26.8-6.6-54,9.7-60.6,36.6-6.6,26.8,9.7,54,36.6,60.6,8.5,2.1,17.5,1.9,25.9-.5l70.9,71.8L39.6,364.6c-19.5,19.5-19.5,51.2,0,70.7h0s145,145,145,145l-70.9,71.8c-26.5-7.6-54.2,7.7-61.8,34.2s7.7,54.2,34.2,61.8c26.5,7.6,54.2-7.7,61.8-34.2,2.4-8.4,2.6-17.3.5-25.8l71.6-72.5,144.7,144.7c19.5,19.5,51.2,19.5,70.7,0h0s145-145,145-145l71.8,70.9c-7.6,26.5,7.7,54.2,34.2,61.8,26.5,7.6,54.2-7.7,61.8-34.2,7.6-26.5-7.7-54.2-34.2-61.8-8.4-2.4-17.3-2.6-25.8-.5l-72.5-71.6,144.7-144.7ZM400,725L75,400,400,75l325,325-325,325Z"/>
</svg>