<?xml version="1.0" encoding="UTF-8"?>
<svg id="Calque_1" data-name="Calque 1" xmlns="http://www.w3.org/2000/svg" version="1.1" viewBox="0 0 24 24">
  <defs>
    <style>
      .cls-1 {
        fill: #fff;
        stroke-width: 0px;
      }
    </style>
  </defs>
  <path class="cls-1" d="M11.2,6c.4,0,.8.4.8.8s-.3.8-.8.8H3.5v12h17v-8.7c0-.4.3-.8.8-.8s.8.3.8.8v9.2c0,.6-.5,1-1,1H3c-.5,0-1-.4-1-1V7c0-.5.4-1,1-1h8.2ZM12.8,15.7l9-9c.1-.1.2-.3.2-.5s0-.4-.2-.5l-2.4-2.4c-.1-.1-.3-.2-.5-.2s-.4,0-.5.2l-9,9c-.4,1.4-1.2,3.6-1.3,4-.1.4.2.8.6.8s.7,0,4.2-1.3ZM10.5,13.3l1.2,1.2c-.7.2-1.3.4-1.7.6l.6-1.7ZM11.5,12.1l7.4-7.3,1.3,1.3-7.3,7.3-1.4-1.4Z"/>
</svg>