<?xml version="1.0" encoding="UTF-8"?>
<svg id="Calque_1" data-name="Calque 1" xmlns="http://www.w3.org/2000/svg" version="1.1" viewBox="0 0 24 24">
  <defs>
    <style>
      .cls-1 {
        fill: #fff;
        stroke-width: 0px;
      }
    </style>
  </defs>
  <path class="cls-1" d="M2,12C2,6.5,6.5,2,12,2s10,4.5,10,10-4.5,10-10,10S2,17.5,2,12ZM3.5,12c0,4.7,3.8,8.5,8.5,8.5s8.5-3.8,8.5-8.5S16.7,3.5,12,3.5,3.5,7.3,3.5,12ZM10.2,7.2c-.1-.1-.3-.2-.5-.2-.4,0-.8.3-.8.7v8.5c0,.4.4.8.8.8s.3,0,.5-.2c1.6-1.2,4.2-3.3,5.5-4.3.2-.1.3-.4.3-.6s-.1-.4-.3-.6l-5.5-4.2ZM10.5,14.7v-5.4l3.5,2.7-3.5,2.7Z"/>
</svg>